<?xml version="1.0" encoding="UTF-8" standalone="no"?>
<svg width="25px" height="25px" viewBox="0 0 25 25" version="1.1" xmlns="http://www.w3.org/2000/svg" xmlns:xlink="http://www.w3.org/1999/xlink">
    <!-- Generator: Sketch 49 (51002) - http://www.bohemiancoding.com/sketch -->
    <title>btn_rename</title>
    <desc>Created with Sketch.</desc>
    <defs></defs>
    <g id="Page-1" stroke="none" stroke-width="1" fill="none" fill-rule="evenodd">
        <g id="切图专用" transform="translate(-115.000000, -50.000000)">
            <g id="btn_rename" transform="translate(115.666667, 50.595588)">
                <g transform="translate(2.000000, 5.000000)">
                    <rect id="Rectangle-21" fill="#87939A" x="0.323863636" y="0.5625" width="19.6022727" height="12.6838235"></rect>
                    <path d="M9,4.56571429 L9,4.34285715 C9,4.15428572 8.85,4.00000001 8.66666667,4 L6.33333333,4 C6.15,4 6,4.15428572 6,4.34285715 L6,4.68571429 C6,4.87428571 6.15,5.02857143 6.33333333,5.02857143 C6.61666666,5.02857143 6.83333333,5.30285714 6.76666666,5.57714286 L6.16666667,8.59428571 C6.11666667,8.81714286 5.93333333,8.97142857 5.73333334,8.97142857 L5.33333333,8.97142857 C5.15,8.97142857 5,9.12571429 5,9.31428572 L5,9.65714286 C5,9.84571428 5.15,10 5.33333333,10 L7.66666667,10 C7.85,10 8,9.84571428 8,9.65714286 L8,9.31428572 C8,9.1257143 7.85,8.97142858 7.66666667,8.97142857 C7.38333334,8.97142857 7.16666667,8.69714286 7.23333334,8.42285715 L7.83333333,5.40571429 C7.88333333,5.18285714 8.06666667,5.02857143 8.26666666,5.02857143 L8.55000001,5.02857143 C8.80000001,5.02857143 9.00000001,4.82285714 9,4.56571429 Z" fill="#FFFFFF" fill-rule="nonzero"></path>
                    <g id="Group" transform="translate(9.220588, 6.147059)" fill="#FFFFFF">
                        <rect id="Rectangle-8" x="0.367647059" y="0.220588235" width="1.07352941" height="1.07352941"></rect>
                        <rect id="Rectangle-8" x="2.51470588" y="0.220588235" width="1.07352941" height="1.07352941"></rect>
                        <rect id="Rectangle-8" x="4.66176471" y="0.220588235" width="1.07352941" height="1.07352941"></rect>
                    </g>
                </g>
            </g>
        </g>
    </g>
</svg>