<?xml version="1.0" encoding="UTF-8" standalone="no"?>
<svg width="13px" height="11px" viewBox="0 0 13 11" version="1.1" xmlns="http://www.w3.org/2000/svg" xmlns:xlink="http://www.w3.org/1999/xlink">
    <!-- Generator: Sketch 48.2 (47327) - http://www.bohemiancoding.com/sketch -->
    <title>btn_projectlist</title>
    <desc>Created with Sketch.</desc>
    <defs></defs>
    <g id="切图专用" stroke="none" stroke-width="1" fill="none" fill-rule="evenodd" transform="translate(-17.000000, -20.000000)">
        <g id="btn_projectlist" transform="translate(11.000000, 13.000000)" fill="#FFFFFF" fill-rule="nonzero">
            <g>
                <path d="M9.36205357,7 L18.3865132,7 L18.3865132,8.7139881 L9.36205357,8.7139881 L9.36205357,7 Z M7.76950188,17.6267262 L6,17.6267262 L6,15.9127381 L7.76950188,15.9127381 L7.76950188,17.6267262 Z M7.76950188,13.1703571 L6,13.1703571 L6,11.456369 L7.76950188,11.456369 L7.76950188,13.1703571 Z M7.76950188,8.7139881 L6,8.7139881 L6,7 L7.76950188,7 L7.76950188,8.7139881 Z M18.3865132,17.6267262 L9.36205357,17.6267262 L9.36205357,15.9127381 L18.3865132,15.9127381 L18.3865132,17.6267262 Z M18.3865132,13.1703571 L9.36205357,13.1703571 L9.36205357,11.456369 L18.3865132,11.456369 L18.3865132,13.1703571 Z"></path>
            </g>
        </g>
    </g>
</svg>