<?xml version="1.0" encoding="UTF-8" standalone="no"?>
<svg width="24px" height="24px" viewBox="0 0 24 24" version="1.1" xmlns="http://www.w3.org/2000/svg" xmlns:xlink="http://www.w3.org/1999/xlink">
    <!-- Generator: Sketch 49 (51002) - http://www.bohemiancoding.com/sketch -->
    <title>btn_trash</title>
    <desc>Created with Sketch.</desc>
    <defs></defs>
    <g id="Page-1" stroke="none" stroke-width="1" fill="none" fill-rule="evenodd">
        <g id="切图专用" transform="translate(-153.000000, -51.000000)">
            <g id="btn_trash" transform="translate(153.000000, 51.000000)">
                <g transform="translate(5.000000, 4.000000)">
                    <path d="M14.1525886,3.48934786 C14.0514106,3.1051414 13.9840914,2.891876 13.9840914,2.891876 C13.8741499,2.49493114 13.5957113,2.49493114 13.1822359,2.42630817 L10.9419801,2.14031063 C10.6635415,2.0934662 10.6635415,2.0934662 10.5539984,1.85020393 C10.1867302,1.01316803 10.0728054,0.526643488 9.67207687,0.526643488 L5.3262036,0.526643488 C4.92547505,0.526643488 4.81593196,1.01316803 4.44866384,1.85431309 C4.33912075,2.0934662 4.33912075,2.0934662 4.06068212,2.1448307 L1.81604455,2.43082824 C1.40655255,2.4990403 1.11098537,2.5376664 1.00184061,2.93461126 C1.00184061,2.93461126 0.950853282,3.10966148 0.845691912,3.48934786 C0.710256815,3.99765096 0.655684437,3.9421773 1.11974881,3.9421773 L13.8785317,3.9421773 C14.342596,3.94628646 14.292007,3.99765096 14.1525886,3.48934786 Z M13.0032589,5.04278993 L2.10226588,5.04278993 C1.36872163,5.04278993 1.33369166,5.13510361 1.37789615,5.65875196 L2.20360258,15.8193037 C2.27449657,16.3344866 2.32745855,16.4388938 2.97676406,16.4388938 L12.1287607,16.4388938 C12.7780662,16.4388938 12.8310282,16.3340835 12.9019222,15.8193037 L13.7276286,5.65875196 C13.7718331,5.13066933 13.7368031,5.04278993 13.0032589,5.04278993 Z" id="Shape" fill="#87939A" fill-rule="nonzero"></path>
                    <path d="M6.5,8.5 L6.5,11.5" id="Line" stroke="#FFFFFF" stroke-linecap="square"></path>
                    <path d="M8.5,8.5 L8.5,11.5" id="Line" stroke="#FFFFFF" stroke-linecap="square"></path>
                </g>
            </g>
        </g>
    </g>
</svg>