<?xml version="1.0" encoding="UTF-8" standalone="no"?>
<svg width="18px" height="18px" viewBox="0 0 18 18" version="1.1" xmlns="http://www.w3.org/2000/svg" xmlns:xlink="http://www.w3.org/1999/xlink">
    <!-- Generator: Sketch 48.2 (47327) - http://www.bohemiancoding.com/sketch -->
    <title>btn_clear</title>
    <desc>Created with Sketch.</desc>
    <defs></defs>
    <g id="切图专用" stroke="none" stroke-width="1" fill="none" fill-rule="evenodd" transform="translate(-534.000000, -47.000000)">
        <g id="btn_clear" transform="translate(534.000000, 47.000000)" fill="#FFBE53">
            <path d="M9.06273197,3.12765431 C9.1881104,3.12038149 9.314451,3.11669456 9.44165272,3.11669456 C12.9992793,3.11669456 15.8833054,6.00072072 15.8833054,9.55834728 C15.8833054,13.1159738 12.9992793,16 9.44165272,16 C5.88402616,16 3,13.1159738 3,9.55834728 C3,8.91415999 3.09455898,8.29205813 3.270554,7.70516465 L4.7885393,7.9375642 C4.6117581,8.44513967 4.51568299,8.9905237 4.51568299,9.55834728 C4.51568299,12.2788852 6.72111476,14.484317 9.44165272,14.484317 C12.1621907,14.484317 14.3676224,12.2788852 14.3676224,9.55834728 C14.3676224,6.83780932 12.1621907,4.63237756 9.44165272,4.63237756 C9.3141565,4.63237756 9.18779159,4.63722127 9.06273197,4.64673472 L9.06273197,5.78920748 L6.03136599,3.89460374 L9.06273197,2 L9.06273197,3.12765431 Z" transform="translate(9.441653, 9.000000) scale(-1, 1) translate(-9.441653, -9.000000) "></path>
        </g>
    </g>
</svg>