<?xml version="1.0" encoding="UTF-8" standalone="no"?>
<svg width="16px" height="16px" viewBox="0 0 16 16" version="1.1" xmlns="http://www.w3.org/2000/svg" xmlns:xlink="http://www.w3.org/1999/xlink">
    <!-- Generator: Sketch 48.2 (47327) - http://www.bohemiancoding.com/sketch -->
    <title>icon_project</title>
    <desc>Created with Sketch.</desc>
    <defs></defs>
    <g id="切图专用" stroke="none" stroke-width="1" fill="none" fill-rule="evenodd" transform="translate(-319.000000, -48.000000)">
        <g id="icon_project" transform="translate(319.000000, 48.000000)" fill="#FFFFFF" fill-rule="nonzero">
            <path d="M6.25625,4 L12.3125,4 L12.3125,5.1875 L6.25625,5.1875 L6.25625,4 Z M5.1875,11.3625 L4,11.3625 L4,10.175 L5.1875,10.175 L5.1875,11.3625 Z M5.1875,8.275 L4,8.275 L4,7.0875 L5.1875,7.0875 L5.1875,8.275 Z M5.1875,5.1875 L4,5.1875 L4,4 L5.1875,4 L5.1875,5.1875 Z M12.3125,11.3625 L6.25625,11.3625 L6.25625,10.175 L12.3125,10.175 L12.3125,11.3625 Z M12.3125,8.275 L6.25625,8.275 L6.25625,7.0875 L12.3125,7.0875 L12.3125,8.275 Z"></path>
        </g>
    </g>
</svg>