<?xml version="1.0" encoding="UTF-8" standalone="no"?>
<svg width="16px" height="16px" viewBox="0 0 16 16" version="1.1" xmlns="http://www.w3.org/2000/svg" xmlns:xlink="http://www.w3.org/1999/xlink">
    <!-- Generator: Sketch 48.2 (47327) - http://www.bohemiancoding.com/sketch -->
    <title>icon_documents</title>
    <desc>Created with Sketch.</desc>
    <defs></defs>
    <g id="切图专用" stroke="none" stroke-width="1" fill="none" fill-rule="evenodd" transform="translate(-371.000000, -48.000000)">
        <g id="icon_documents" transform="translate(371.000000, 48.000000)" fill="#7D888F" fill-rule="nonzero">
            <path d="M8,5.45869511 L8,2.00730839 L4.8,2.00730839 C4.46862915,2.00730839 4.2,2.27998149 4.2,2.6163408 L4.2,13.1729027 C4.19999999,13.3344282 4.2632141,13.489338 4.37573592,13.6035537 C4.48825775,13.7177694 4.6408701,13.7819352 4.8,13.7819352 L12.4,13.7819352 C12.5591299,13.7819352 12.7117422,13.7177694 12.8242641,13.6035537 C12.9367859,13.489338 13,13.3344282 13,13.1729027 L13,6.6796021 L9.2,6.6796021 C8.53719999,6.6796021 8,6.132894 8,5.45869511 Z M9.2,6.0691486 L13,6.0691486 L8.59999946,2 L8.6,5.45869511 C8.5997877,5.62041725 8.66288893,5.77559832 8.77541653,5.89008642 C8.88794412,6.00457453 9.04067626,6.06898718 9.2,6.0691486 Z M3.6,13.1729027 L3.6,3.22537323 C3.26862915,3.22537323 3,3.49804633 3,3.83440565 L3,13.7819352 C3,14.4546538 3.5372583,15 4.2,15 L11.2,15 C11.5313709,15 11.8,14.7273269 11.8,14.3909676 L4.8,14.3909676 C4.48174021,14.3909676 4.17651551,14.2626361 3.95147186,14.0342046 C3.7264282,13.8057732 3.6,13.4959536 3.6,13.1729027 Z"></path>
        </g>
    </g>
</svg>