<?xml version="1.0" encoding="UTF-8" standalone="no"?>
<svg width="28px" height="28px" viewBox="0 0 28 28" version="1.1" xmlns="http://www.w3.org/2000/svg" xmlns:xlink="http://www.w3.org/1999/xlink">
    <!-- Generator: Sketch 48.2 (47327) - http://www.bohemiancoding.com/sketch -->
    <title>icon_back</title>
    <desc>Created with Sketch.</desc>
    <defs>
        <path d="M6.40737715,7.0873511 L15.8296775,7.0873511 C20.5458572,7.0873511 25,10.8864594 25,15.602616 C25,20.0983261 21.5477324,23.7607359 17.1397466,24.0932962 L17.1397466,24.1179269 L9.27947022,24.1179269 L9.27947022,22.8078578 L16.4847121,22.8078578 C20.4148503,22.8078578 23.689977,19.5327542 23.689977,15.602616 C23.689977,11.6724778 19.7598157,8.39737414 15.8296775,8.39737414 L6.55458526,8.39737414 L9.55852484,11.4012988 L8.63099869,12.3274893 L4,7.69520105 L4.03935107,7.65585096 L4.01314905,7.62968608 L8.64407865,3 L9.57160481,3.92490095 L6.40737715,7.0873511 Z" id="path-1"></path>
    </defs>
    <g id="切图专用" stroke="none" stroke-width="1" fill="none" fill-rule="evenodd" transform="translate(-265.000000, -41.000000)">
        <g id="icon_back" transform="translate(265.000000, 41.000000)" fill-rule="nonzero">
            <g>
                <use fill="#FFFFFF" fill-rule="evenodd" xlink:href="#path-1"></use>
                <path stroke="#FFFFFF" stroke-width="1" d="M4.68092044,7.66910586 L4.35360261,7.34169688 L4.03933397,7.65587803 L4.36665496,7.98328695 L4.68092044,7.66910586 Z M7.61496372,6.5873511 L15.8296775,6.5873511 C20.9367864,6.5873511 25.5,10.7117783 25.5,15.602616 C25.5,20.180351 22.1054117,23.9787236 17.6397466,24.5451606 L17.6397466,24.6179269 L8.77947022,24.6179269 L8.77947022,22.3078578 L16.4847121,22.3078578 C20.1387127,22.3078578 23.189977,19.256607 23.189977,15.602616 C23.189977,12.0717725 19.618757,8.89737414 15.8296775,8.89737414 L7.76169628,8.89737414 L10.2658873,11.4015527 L8.63069481,13.0343906 L3.29293804,7.69514744 L3.33198909,7.65609737 L3.30574393,7.6298894 L8.64362543,2.29344125 L10.2793126,3.9244989 L7.61496372,6.5873511 Z"></path>
            </g>
        </g>
    </g>
</svg>