<?xml version="1.0" encoding="UTF-8" standalone="no"?>
<svg width="16px" height="16px" viewBox="0 0 16 16" version="1.1" xmlns="http://www.w3.org/2000/svg" xmlns:xlink="http://www.w3.org/1999/xlink">
    <!-- Generator: Sketch 48.2 (47327) - http://www.bohemiancoding.com/sketch -->
    <title>language_python</title>
    <desc>Created with Sketch.</desc>
    <defs></defs>
    <g id="切图专用" stroke="none" stroke-width="1" fill="none" fill-rule="evenodd" transform="translate(-343.000000, -48.000000)">
        <g id="language_python" transform="translate(343.000000, 48.000000)" fill="#7D888F" fill-rule="nonzero">
            <path d="M12.284,5 C13.2317206,5 14,5.76827937 14,6.716 L14,8.984 C14,9.93172063 13.2317206,10.7 12.284,10.7 L8,10.7 C8,10.934 8.192,11.276 8.42599999,11.276 L11,11.276 L11,12.284 C11,13.2317206 10.2317206,14 9.284,14 L6.716,14 C5.76827937,14 5.00000001,13.2317206 5.00000001,12.284 L5.00000001,10.034 C4.99999721,9.57943831 5.1809808,9.14358137 5.50296686,8.82272113 C5.82495293,8.50186089 6.26144112,8.32240504 6.716,8.32399999 L9.86599999,8.32399999 C10.3205617,8.32400279 10.7564186,8.1430192 11.0772789,7.82103314 C11.3981391,7.49904707 11.5775949,7.06255888 11.576,6.608 L11.576,5 L12.284,5 Z M9.716,12.074 C9.476,12.074 9.284,12.254 9.284,12.608 C9.284,12.962 9.476,13.034 9.716,13.034 C9.82898223,13.034 9.937337,12.989118 10.0172275,12.9092275 C10.097118,12.829337 10.142,12.7209822 10.142,12.608 C10.142,12.254 9.95,12.074 9.716,12.074 Z M3.716,11 C2.76827937,11 2,10.2317206 2,9.284 L2,7.016 C2,6.06827936 2.76827937,5.29999999 3.716,5.29999999 L8,5.29999999 C8,5.06599999 7.808,4.72399999 7.57400001,4.72399999 L5.00000001,4.72399999 L5.00000001,3.71599999 C5.00000001,2.76827937 5.76827937,2.00000001 6.716,2 L9.284,2 C10.2317206,2.00000001 11,2.76827937 11,3.71599999 L11,5.96599999 C11.0000028,6.42056167 10.8190192,6.85641862 10.4970331,7.17727886 C10.1750471,7.4981391 9.73855888,7.67759494 9.284,7.67599999 L6.13400001,7.67599999 C5.67943832,7.67599719 5.24358138,7.85698079 4.92272114,8.17896686 C4.60186089,8.50095292 4.42240505,8.93744111 4.42400001,9.392 L4.42400001,11 L3.716,11 Z M6.284,3.926 C6.524,3.926 6.716,3.746 6.716,3.39199999 C6.716,3.038 6.524,2.966 6.284,2.966 C6.05,2.966 5.858,3.038 5.858,3.39199999 C5.858,3.74599999 6.05,3.92599999 6.284,3.926 Z"></path>
        </g>
    </g>
</svg>