<?xml version="1.0" encoding="UTF-8" standalone="no"?>
<svg width="8px" height="10px" viewBox="0 0 8 10" version="1.1" xmlns="http://www.w3.org/2000/svg" xmlns:xlink="http://www.w3.org/1999/xlink">
    <!-- Generator: Sketch 48.2 (47327) - http://www.bohemiancoding.com/sketch -->
    <title>btn_trash</title>
    <desc>Created with Sketch.</desc>
    <defs></defs>
    <g id="selectaproject" stroke="none" stroke-width="1" fill="none" fill-rule="evenodd" transform="translate(-527.000000, -247.000000)">
        <g id="popup_selectproject" fill="#6D6A6A" fill-rule="nonzero">
            <g id="option" transform="translate(453.000000, 92.000000)">
                <g id="btn_trash" transform="translate(74.000000, 155.000000)">
                    <path d="M7.9422747,2.42607127 C7.88231738,2.21520072 7.84242451,2.09815065 7.84242451,2.09815065 C7.77727404,1.88028868 7.61227337,1.88028868 7.36725092,1.84262517 L6.0396919,1.68565629 C5.87469123,1.65994587 5.87469123,1.65994587 5.8097768,1.52643212 C5.59213644,1.06702751 5.52462544,0.8 5.28715666,0.8 L2.71182436,0.8 C2.47435558,0.8 2.40944116,1.06702751 2.19180079,1.52868742 C2.12688637,1.65994587 2.12688637,1.65994587 1.9618857,1.68813712 L0.631730104,1.845106 C0.389068178,1.88254398 0.213917255,1.9037438 0.149238881,2.12160577 C0.149238881,2.12160577 0.119024167,2.21768155 0.0567063182,2.42607127 C-0.0235515172,2.70505187 -0.0558907039,2.67460532 0.219110409,2.67460532 L7.77987061,2.67460532 C8.05487172,2.67686062 8.02489306,2.70505187 7.9422747,2.42607127 Z M7.08469613,3.42426703 L0.914284895,3.42426703 C0.499068623,3.42426703 0.479240217,3.4759134 0.504261777,3.76887686 L0.971645642,9.4533604 C1.01177456,9.74158773 1.04175322,9.8 1.4092869,9.8 L6.58969412,9.8 C6.9572278,9.8 6.98720646,9.7413622 7.02733538,9.4533604 L7.49471924,3.76887686 C7.5197408,3.47343257 7.4999124,3.42426703 7.08469613,3.42426703 Z" id="Shape"></path>
                </g>
            </g>
        </g>
    </g>
</svg>