<?xml version="1.0" encoding="UTF-8" standalone="no"?>
<svg width="9px" height="8px" viewBox="0 0 9 8" version="1.1" xmlns="http://www.w3.org/2000/svg" xmlns:xlink="http://www.w3.org/1999/xlink">
    <!-- Generator: Sketch 48.2 (47327) - http://www.bohemiancoding.com/sketch -->
    <title>icon_project</title>
    <desc>Created with Sketch.</desc>
    <defs></defs>
    <g id="selectaproject" stroke="none" stroke-width="1" fill="none" fill-rule="evenodd" transform="translate(-39.000000, -137.000000)">
        <g id="popup_selectproject" fill="#FFFFFF" fill-rule="nonzero">
            <g id="project-name" transform="translate(38.000000, 92.000000)">
                <g id="icon_project" transform="translate(1.000000, 45.000000)">
                    <path d="M2.25625,-8.8817842e-16 L8.3125,-8.8817842e-16 L8.3125,1.1875 L2.25625,1.1875 L2.25625,-8.8817842e-16 Z M1.1875,7.3625 L1.77635684e-15,7.3625 L1.77635684e-15,6.175 L1.1875,6.175 L1.1875,7.3625 Z M1.1875,4.275 L1.77635684e-15,4.275 L1.77635684e-15,3.0875 L1.1875,3.0875 L1.1875,4.275 Z M1.1875,1.1875 L1.77635684e-15,1.1875 L1.77635684e-15,-8.8817842e-16 L1.1875,-8.8817842e-16 L1.1875,1.1875 Z M8.3125,7.3625 L2.25625,7.3625 L2.25625,6.175 L8.3125,6.175 L8.3125,7.3625 Z M8.3125,4.275 L2.25625,4.275 L2.25625,3.0875 L8.3125,3.0875 L8.3125,4.275 Z"></path>
                </g>
            </g>
        </g>
    </g>
</svg>